<?xml version="1.0" standalone="no"?>
<!DOCTYPE svg PUBLIC "-//W3C//DTD SVG 20010904//EN"
 "http://www.w3.org/TR/2001/REC-SVG-20010904/DTD/svg10.dtd">
<svg version="1.0" xmlns="http://www.w3.org/2000/svg"
 width="280.000000pt" height="220.000000pt" viewBox="0 0 280.000000 220.000000"
 preserveAspectRatio="xMidYMid meet">

<g transform="translate(0.000000,220.000000) scale(0.100000,-0.100000)"
fill="#000000" stroke="none">
<path d="M1712 1957 l-132 -132 0 -485 0 -485 135 135 135 134 0 483 c0 266
-1 483 -3 483 -1 0 -62 -60 -135 -133z"/>
<path d="M180 1078 l0 -923 131 132 132 132 -5 481 c-2 264 -2 480 2 480 3 0
125 -119 270 -265 l264 -266 193 193 193 193 0 185 0 185 -194 -194 -194 -193
-387 391 c-213 215 -392 391 -396 391 -5 0 -9 -414 -9 -922z"/>
<path d="M1720 624 c-74 -75 -127 -134 -117 -130 10 3 250 6 533 6 l514 0 0
130 0 130 -398 0 -397 0 -135 -136z"/>
</g>
</svg>
